<?xml version="1.0" encoding="UTF-8" standalone="no"?>
<svg
   version="1.1"
   width="256"
   height="256"
   viewBox="0 0 256 256"
   xml:space="preserve"
   id="svg1"
   sodipodi:docname="arrow.svg"
   inkscape:version="1.3.2 (091e20ef0f, 2023-11-25)"
   xmlns:inkscape="http://www.inkscape.org/namespaces/inkscape"
   xmlns:sodipodi="http://sodipodi.sourceforge.net/DTD/sodipodi-0.dtd"
   xmlns="http://www.w3.org/2000/svg"
   xmlns:svg="http://www.w3.org/2000/svg"><sodipodi:namedview
   id="namedview1"
   pagecolor="#ffffff"
   bordercolor="##00a97f"
   borderopacity="0.25"
   inkscape:showpageshadow="2"
   inkscape:pageopacity="0.0"
   inkscape:pagecheckerboard="0"
   inkscape:deskcolor="#d1d1d1"
   inkscape:zoom="3.4375"
   inkscape:cx="128.14545"
   inkscape:cy="128"
   inkscape:window-width="1920"
   inkscape:window-height="1123"
   inkscape:window-x="0"
   inkscape:window-y="0"
   inkscape:window-maximized="1"
   inkscape:current-layer="svg1" />

<defs
   id="defs1">
</defs>
<g
   style="opacity:1;fill:#00a97f;fill-opacity:1;fill-rule:nonzero;stroke:none;stroke-width:0;stroke-linecap:butt;stroke-linejoin:miter;stroke-miterlimit:10;stroke-dasharray:none"
   transform="matrix(2.2982269,0,0,2.1500074,3.086359,4.907)"
   id="g1">
	<path
   d="M 73.333,0.011 C 73.296,0.015 73.261,0.025 73.225,0.033 72.753,0.113 72.388,0.505 72.388,1 v 9.931 c 0,0.553 0.447,1 1,1 0.553,0 1,-0.447 1,-1 V 3.076 c 5.501,4.776 9.048,11.302 10.046,18.587 1.09,7.952 -0.986,15.859 -5.841,22.254 -4.154,5.473 -9.92,9.281 -16.481,10.948 C 62.071,54.444 62.021,54.022 61.964,53.601 60.803,45.116 56.406,37.592 49.584,32.413 39.597,24.831 31.87,25.933 28.289,29.18 c -3.588,3.254 -3.748,8.866 -0.406,14.297 1.684,2.737 4.168,5.361 7.381,7.8 6.821,5.179 15.25,7.39 23.735,6.229 0.422,-0.058 0.841,-0.124 1.258,-0.197 0.179,6.757 -1.96,13.345 -6.115,18.818 C 44.119,89.33 25.224,91.917 12.021,81.895 9.005,79.606 6.689,77.164 5.135,74.639 4.846,74.168 4.23,74.022 3.759,74.311 c -0.471,0.29 -0.618,0.907 -0.328,1.376 1.684,2.737 4.167,5.362 7.381,7.801 14.081,10.69 34.233,7.93 44.924,-6.151 4.508,-5.937 6.763,-13.087 6.511,-20.443 7.149,-1.729 13.433,-5.829 17.94,-11.766 4.277,-5.634 6.53,-12.366 6.53,-19.32 0,-1.464 -0.1,-2.94 -0.302,-4.416 C 85.381,13.84 81.78,7.054 76.193,2 h 7.127 c 0.553,0 1,-0.447 1,-1 0,-0.553 -0.447,-1 -1,-1 h -9.931 c -0.02,0 -0.036,0.01 -0.056,0.011 z M 58.728,55.524 c -7.955,1.09 -15.859,-0.985 -22.254,-5.84 -3.016,-2.289 -5.332,-4.73 -6.887,-7.256 -1.421,-2.308 -2.13,-4.583 -2.13,-6.608 0,-2.048 0.726,-3.842 2.177,-5.157 3.251,-2.95 10.308,-3.059 18.742,3.344 6.396,4.855 10.518,11.91 11.607,19.865 0.065,0.475 0.119,0.949 0.161,1.424 -0.469,0.087 -0.941,0.163 -1.416,0.228 z"
   style="opacity:1;fill:#00a97f;fill-opacity:1;fill-rule:nonzero;stroke:none;stroke-width:1;stroke-linecap:butt;stroke-linejoin:miter;stroke-miterlimit:10;stroke-dasharray:none"
   stroke-linecap="round"
   id="path1" />
</g>
</svg>
